<svg id="Layer_1" data-name="Layer 1" xmlns="http://www.w3.org/2000/svg" viewBox="0 0 428.69 436.82"><defs><style>.cls-1{fill:#395398;fill-rule:evenodd;}.cls-2{fill:#fff;}</style></defs><title>fb</title><path class="cls-1" d="M7186.73,7430c2.09-1,10-1.39,12.67-2.76C7186.46,7428.23,7186.45,7427.72,7186.73,7430Z" transform="translate(-6951.43 -6998.34)"/><path class="cls-1" d="M6956.34,7203.54c-1.63,8.06-.68,14-.13,19C6955.61,7216.94,6957.28,7208.65,6956.34,7203.54Z" transform="translate(-6951.43 -6998.34)"/><path class="cls-1" d="M7162.58,7429.79a4.2,4.2,0,0,0,2.33.48l3.29-.21-2.53-.48C7164.05,7429.39,7162.63,7429.38,7162.58,7429.79Z" transform="translate(-6951.43 -6998.34)"/><path class="cls-1" d="M7175.49,7429.75l-1.19.49,2.58.31c0-.2,1.2-.38.72-.54A15.32,15.32,0,0,0,7175.49,7429.75Z" transform="translate(-6951.43 -6998.34)"/><path class="cls-1" d="M7196.33,7002.06l22.65,5,8.62,2.6c6.3.9,12.43,5,18.17,6.59l-.4-.37,8.7,3.92c2.73.87,6,3.09,8.63,4.1,4.71,2.69,9.61,5.05,13.71,7.82A25.84,25.84,0,0,0,7282,7035l10.95,7.49c1.46.65,3.77,2.8,5,3.34a30.8,30.8,0,0,0,2.77,1.6c-1.58-2.2-4.38-4.2-6.91-6l-13-8.87c-3.84-2.75-7.43-5.38-11.29-6.51-3-1.58-5.74-3.05-8.51-4.53-4.57-1.86-10.11-5.3-14.74-6.43-1.9-.82-3.8-1.63-5.49-2.34-3.35-1.37-6.6-3.05-9.32-3.2l-3.46-1.12a11.78,11.78,0,0,0-3-.89c-1-.29-1.75-.49-2.74-.76a142.61,142.61,0,0,0-25.95-6.36c-2.32-.33-3.65-.24-3.73.23S7194,7001.65,7196.33,7002.06Zm81.46,29.93.14.09a15,15,0,0,1,2.88,1.91c-1.17-.78-2.17-1.43-2.83-1.86a1,1,0,0,0-.22-.09Z" transform="translate(-6951.43 -6998.34)"/><path class="cls-1" d="M7349.52,7343.06l-.1.15c-.11.17-.18.37-.3.53Z" transform="translate(-6951.43 -6998.34)"/><path class="cls-1" d="M7378.7,7252.14c0-.12,0-.26,0-.37a73.18,73.18,0,0,0,1.3-17.26,13.53,13.53,0,0,0-.5,1.4,18.64,18.64,0,0,0-.07-3.53l-.17-.78.1-1c.05-4.67.11-9.33.17-14.26-.15-.77-.3-1.53-.53-2.82a240.56,240.56,0,0,0-7.24-40.43c-.37-1-.83-2.17-1.11-2.91a345.89,345.89,0,0,0-11.54-32.85l-1.6-2.34c-.49-1.18-.87-2.11-1.24-3a13.76,13.76,0,0,0-2.59-5.5c-3.7-6.91-6.76-14.55-11.42-19.39-6.43-7.92-13.61-18.18-21.33-25.84-3.77-4-5.94-8.14-9.8-11.77-3.75-3.35-4.39-2-9.75-6.46-5.76-4.36-11.34-9.33-17.57-13.82l-.37.5c-.09-.31-.34-.78.37-.5l-2.43-1.7-.36.5-7.54-5.21-2.8-1.14-.89-.42-.55-.49c-2.14-1.71-5.24-2.74-6.37-4.19,1.43,0,6.1,2.75,6.53,2.07-8.64-5.36-14-7.43-17.7-7.22-1.7-1-4.11-2.21-3.93-2.58,1.4-1.14-2.4-2.44-7.32-4.1-4-1.29-5.2-.95-5.07.05l-2.7-1.14a10.45,10.45,0,0,0-2.94-1.17l.38.33a25.73,25.73,0,0,0-2.92-1.26c-3.45-1.22-8.94-2.59-7.11-3.5,1.48-.61-.77-1.62-4.81-2.85-3.33-1-6.56-2.42-10.19-2.06,4,1.26,8.73,3.59,7.21,4.44-1.73-.31-3.73-.84-5.76-1.31a20,20,0,0,0-3.94-3.27c-.44-.56-.9-1.06-2.87-1.56-.25-1.34-1.2-2.7-3.34-4,1.9.14,4,.34,6,.53a64.87,64.87,0,0,1,17.78,5.62,40.25,40.25,0,0,0,11.74,3.67c5.56,2.35,10.85,4.59,16.41,7a377.5,377.5,0,0,1,38.54,20.86l-.25-.1c6.94,4.3,13,10.63,19.71,15.67,2.61,1.67,5.7,4.73,8.72,7.86l3.15,3c2.13,1.89,4.33,4.38,6.41,6.64,6.44,7.94,12.59,14.84,18,22.37-.3-.71-.3-.72-.5-1.18l.28.42.22.76c1.75,2.58,3.71,5.87,5.35,7.29l.93,1.28.74,1.33c2.64,4.76,4.86,10.25,7.68,13.75a23.61,23.61,0,0,1,1.45,2.48c1.45,3.29,3,6.55,4.42,9.05.3.73.35.71.49.65.23.19.23-.09.08-.89-1.81-7.94-5.41-15.89-10.94-24.43l-4.88-7.71c-9.53-17.42-21.69-29.91-35-40.65a21.75,21.75,0,0,0-4.76-4,22.5,22.5,0,0,0-4.9-3.43c-1.79-1.46-3.18-2.6-4.57-3.72l-7.42-6.36c-10.71-9.3-23.17-16.31-36-22-5.78-2.72-12.16-4.64-18.26-7.86-4.5-2.52-10.45-4.92-8.5-1.94.29.66-3.61-.49-6-1.24-4.61-1.33-9.89-3.21-14.88-4.24a7,7,0,0,1-2-.48,8.74,8.74,0,0,0-3.46-.73,6.72,6.72,0,0,1-2.24-.46,132.32,132.32,0,0,0-13.13-3.56,31.84,31.84,0,0,0-5.7-1.2c-.27-.54-1.08-1-3.43-1.26a22.44,22.44,0,0,0-3.19-.48l-.78.13-.27,0,1.05-.15c-.54-.47-1.6-.76-4.27-.77l-.27-.09v.06c-.26-.34-1.33-.45-3.22-.48a5.84,5.84,0,0,1-2.12.12c-4.93.38-9.89,1.08-14.82,1.94a43.91,43.91,0,0,0-8.49.25,221.38,221.38,0,0,0-35.28,5.08v.09l0,.1,0-.19c-5.25-.08-11.91,2.86-17.88,4.22-2.66.1-6.07,1.25-8.93,2.36a35.93,35.93,0,0,0-6.89,2c-3.15,1.14-1.88,1.52-3.72,2.43a9.78,9.78,0,0,0-3,2c-.82.65-4.78,2.42-3.77,2.79.45.35,1.31.41,3.31-.08.83.6,3.18.3,6.59-.64l.64-.39,0,0a2.31,2.31,0,0,0-.66.35c2.3.4,4.86.84,7.17,1.22.3.81,1.28,1.31,4.38.67-1.68,1-3.33,2.1-4.87,3.24-4.54,2.6-10.63,4.71-13.17,8.1-6.13,4.47-13.39,8.78-18.27,14l.4-.33c-2.88,3.08-7.64,5.89-9.65,8.75l0,0c-1.27,1.34-3.56,3.05-4.81,4.75l-.43.67-.8.66-8.42,8.22c-3.71,3-7.43,6.09-10.32,10.35-3.85,5.22-11.3,13.41-15.51,20-4.27,7-10.83,13.77-13.12,21.14l.35-.31c-.18.42-.22.39-.22.39l-.13-.08a199,199,0,0,0-11.64,23.5,77.56,77.56,0,0,0-5.82,16c-.44,1.39-.87,2.78-1.28,4.19a141.3,141.3,0,0,0-8,34.08c-.75,6.17-1.46,11.68-.37,16.75a2.87,2.87,0,0,1-.12,1.83,18,18,0,0,0-.66,5.52c-1.29,5.55.09,11.5.41,17.23l.17.2h0v0s-.12,0-.17-.2c-.5,2.37-.16,6.06.51,9.23h0c-.33,2.16.83,6.18,1,9a4.37,4.37,0,0,1,.25,1.84,15.71,15.71,0,0,0,.56,5.8c.42,3.71,1.38,7.58,3,10.24h0a26.37,26.37,0,0,0,2.44,7.43c1,3.24,1.9,6.22,2.81,9.23,1.92,4.55,3.4,10.89,5.87,15,.78,1.92,1.55,3.85,2.23,5.54,1.41,3.33,2.52,6.82,4.33,8.84.59,1.17,1.18,2.32,1.66,3.25a12.5,12.5,0,0,0,1.47,2.74l1.42,2.47a143.42,143.42,0,0,0,13.84,22.84c1.41,1.87,2.41,2.76,2.8,2.48s-.26-1.72-1.59-3.63L6987,7334l-4.26-7.94c-3.83-5.09-5.29-12.29-8.19-17.51l0,.55c-1.2-3.14-2.21-5.8-3.39-8.94-1.31-2.53-2-6.38-3.21-9-.38-1.42-.8-2.82-1.22-4.22.14.25.25.51.4.74l-.05,0c.34.6.57,1,.92,1.62-.14-.66-.24-1.1-.36-1.73l0,.14v-.22a.45.45,0,0,0,0,.08,15,15,0,0,0-.2-2.45c.16-1.27-.39-3.46-1-5.68l-.13,0,0,0,.17-.06a8.39,8.39,0,0,0-.15-1.89,179.33,179.33,0,0,0,6.25,19.42c2.16,6,5.32,11.88,7.35,18.46,1.4,5,3.92,10.89,4.64,7.39.26-.67,2.2,2.89,3.38,5.15,2.34,4.2,4.73,9.26,7.53,13.52a6.75,6.75,0,0,1,1.06,1.73,9,9,0,0,0,1.94,3,6.72,6.72,0,0,1,1.25,1.92c6.13,12,13.72,23.42,25.21,32.48a41.79,41.79,0,0,1,4.41,4.59,35.54,35.54,0,0,0,8,8.26,223.92,223.92,0,0,0,28.53,21.36l.05-.08.06-.09-.11.17c3.66,3.77,10.45,6.39,15.63,9.65a31.42,31.42,0,0,0,8,4.65,36.4,36.4,0,0,0,6.33,3.42c3,1.41,2.41.25,4.34.91a10.09,10.09,0,0,0,3.57.72c1.05.12,5.08,1.67,4.64.69-.07-.56-.63-1.21-2.38-2.28-.18-1-2-2.46-5.13-4.21l-.73-.17,0-.05a2,2,0,0,0,.7.22l-4.2-5.94c.42-.93-.09-2.2-4.32-4.59-.4-.84-1.26-1.84-1.63-2.77,3.07,1.43,6.44,2.77,9.4,3.81,3.18,1.1,5,1,5.29.4.77-.68-2.8-2-4.93-3.07-2.55-1.26-4.51-2.69-4.66-3.45-.29-1,3.4.54,5.27,1,6.44,1.58,14.6,5.76,21.92,6.74,3.41.78,7.7,2.8,10.69,2.4l-.21-.15.24.05,0,.1c5,1,10.14,2.61,14.41,2.53a6.52,6.52,0,0,1-1.1-.47l.24.05.86.42c4.56.72,10.08,1.73,13.86,1.18l-.46-.15.47.06v.09c7.35.33,15,2.36,23.08.79,6.42-1,17.48-1.49,25.12-3.17,8-1.94,17.38-2.07,24.22-5.66l-.47,0c.42-.18.43-.13.43-.13l0,.16a195.11,195.11,0,0,0,44.11-17.61A147,147,0,0,0,7304.9,7385l0,0c.32.36,1.18.18,2.84-1.06l.84-1,0,0s-.51.58-.87,1a7.61,7.61,0,0,0,2.87-.59c-2.09,1.63-4.37,3.78-6.43,4.79l.18-.14c-2.25,1.25-5.36,3.67-7.55,4.57-5,1.68-10.12,6.49-15.6,9l-4.56,2.23c-3.08,1-6.89,3.72-10.23,4.67-1.7.69-3,1.21-4.26,1.74-5.58,2.64-11,5.21-16.89,6.44l-.85.36-.66.17c-17.33,4.21-30,8.8-43.32,11.92,25.41-2.64,50.08-10.28,72.8-21.32l5-2.52c4.18-1,8.73-4,13-6.86l6.93-4.36c2.31-1.15,5.08-3.28,7.33-4.6a16.66,16.66,0,0,1,2.09-1.49c2.25-.94,4.71-3.15,7.25-5.22l2.26-1.73c1-.63,2.28-1.3,3-1.89l3.2-3.15a9.51,9.51,0,0,0,3.06-2.34l.25-.13,0,0c.43.05,1.26-.63,2.62-1.95a5.63,5.63,0,0,1,1.41-1.57c7.06-8.23,13.15-17.54,18.79-26.72a85.73,85.73,0,0,0,5.74-10.1,28.31,28.31,0,0,0,3.93-6.73c.69-1,1.4-1.88,2.16-2.76,4.37-11.36,9.19-23.09,10.88-34.15,1.37-5,4.19-10.85,3.58-15,1.18-7.49,3.27-15.67,3.05-22.8Zm-40.84-160.27-.13.09s.06-.05,0-.29ZM7072,7017.57c-.06-.14-.38-.24.32-.6.2-.19.7-.28.91-.44C7072.59,7017,7071.9,7017.4,7072,7017.57Zm26.41,412.94c-.06.15.1.43-.65.2-.28,0-.7-.3-1-.34C7097.55,7430.46,7098.31,7430.68,7098.38,7430.51Zm267.15-216.79h-.1v-.48Zm-1.33,28.81c.27-4.58.67-9.2-.06-13.33C7365,7232.87,7364.52,7237.7,7364.2,7242.53Zm.35-87c-.22-.2-.68-1.38-.95-1.54-.11-.51-.29-1.24-.4-1.73C7363.68,7153.43,7364.27,7154.84,7364.55,7155.53Zm-1.74,26.5.09,0c0,.26-.14,1-.33.57A3,3,0,0,0,7362.81,7182Zm-4.11,43.46h0l-.05.24Zm-4.83-16.4a9.29,9.29,0,0,1,.23,2.06c-.13,1.84-.45-.18-.73-1.11C7353.59,7210,7353.83,7210,7353.87,7209.09Zm-2.85,32.34.15,0-.09.45C7351,7242.11,7351,7241.43,7351,7241.43Zm-43.78,113c.34-.64.71-1.3,1.06-1.95.21-3.14,4.21-8.67,7.2-15.05-1.2,4.6-4.36,9.92-7.2,15.05a5,5,0,0,0-.15.87Zm-269.54-3.18c-.24-.14-.57-.5-.78-.58l0,0-.13-.15c-.48-.48-.33-.32-.48-.48l0,0a4.9,4.9,0,0,1,.46.5l.17.13.41.25C7037.45,7351,7037.57,7351.1,7037.7,7351.22Zm-36.87-10.94c-.15-.18-.27-.35-.27-.35.4.26.55.14.45-.34l-.12-.19a.66.66,0,0,1,.11.12c-1.9-3.69-3.57-8.66-1.9-8.19,2,2.82,4.07,6.94,6.49,9.76,1.11,1.61,2.35,3.43,3.59,5.24,1.91,4.66,2.27,5.58,1.3,7-1.16-2-2.89-4.09-4.69-6.6-.8-2.28-2.89-4.63-4.78-7.13C7001.11,7340.07,7001,7340.16,7000.83,7340.28Zm5.82-68.24.18,0v.45Zm-2.77,12.58a1.38,1.38,0,0,0-.81-.45,6.21,6.21,0,0,1-1.06,2.89c.24-1.21.19-3,1.06-2.89a14,14,0,0,0,.26-2.56C7003.69,7282.86,7003.45,7283.39,7003.88,7284.62Zm-6.72,37-.22-.42a19.24,19.24,0,0,0,2.19,3.2l-.16.08Zm-3.3-19.86c-.47-.81-.72-1.21-.84-1.42-.15-.43-.31-.89-.38-1.11C6993,7299.91,6993.45,7301,6993.86,7301.79Zm-6.56-27.23c-.17,0-.48-.37-.79-1l-.08-.47C6986.67,7273.76,6987.07,7274.62,6987.3,7274.56Zm-19.07-17.44a4.33,4.33,0,0,1-.32-.83h.05A2.15,2.15,0,0,0,6968.23,7257.12Zm5.47,20.12c-.4.12-.17,1.41.29,3.14a10,10,0,0,1-1.1-3.36C6973,7276.32,6973.38,7276.86,6973.7,7277.24Zm10.05-11.72a12.65,12.65,0,0,1-1.4-4.27A32.9,32.9,0,0,0,6983.75,7265.52Zm1.53,11.22c-.14-1.43-.29-2.58.2-2.69C6985.08,7274.13,6985.14,7275.31,6985.28,7276.74Zm-19.87-66,0,.43h-.09V7211l0-.22Zm-1.27,8.54v.21l-.06.23c-.14,1.15-.24,2.09-.37,3.09,0,.29,0,.58-.05.9v-.46c0-.15,0-.29.05-.44a20,20,0,0,1,.37-3.09C6964.1,7219.61,6964.12,7219.47,6964.14,7219.31Zm-3.52,33.42a.56.56,0,0,0,.53-.25c.06.7.11,1.13.18,1.81a8.64,8.64,0,0,0-.71-1.56c-.55-.07-1.16-1-1.74-2A5.72,5.72,0,0,1,6960.62,7252.73Zm27.26,57.18c.46,1.14.73,1.81,1.1,2.71a10.41,10.41,0,0,0,1.27,2.92l-.05-.51a30,30,0,0,0,1.17,3c1.58,3.3,4.49,8.16,2.56,7.49-.54-.22-.76,0-.73.44-.59-1.17-1.18-2.31-1.71-3.36l0,0c0-1.58-2.21-4.38-3.23-6.84a27.55,27.55,0,0,0-1.93-6.18C6987,7310.35,6987.54,7310.37,6987.88,7309.91Zm53.56-235.64.06-.1h0Zm142.32-43.89,0,.28c0,.22-1.13.05-1.15.2C7182.6,7030.63,7183.72,7030.63,7183.76,7030.38Zm-13.92-1.9c-.45,0,0,0-.22,0h-1.13l.47-.06a23,23,0,0,1,3.83-.18C7172.1,7028.37,7170.32,7028.25,7169.84,7028.48Zm3,2.07v0a3.17,3.17,0,0,1-.68,0l-.22,0-.45.11c-.19,0-.32,0-.51,0,.26-.07.76,0,1-.14l0-.05.2,0ZM7322.68,7300a2.71,2.71,0,0,1,.64-1.13l.11.05C7323.21,7299.25,7322.62,7300.62,7322.68,7300Zm.49,1.47-.18.33,0-.4-.12.14s-.05,0-.05-.06.15-.09.25-.24a.79.79,0,0,0,0,.1Zm21.57-61.52c-.09.64-.12.87-.24,1.74a2.39,2.39,0,0,0-.19-1.13C7344.49,7239.87,7344.61,7240.11,7344.74,7239.9Zm-4.11-105.74a2.45,2.45,0,0,1,.12.26l-.1-.22v0c-.11-.24-.22-.46-.28-.61a6.36,6.36,0,0,1-.16-.7A5.57,5.57,0,0,0,7340.63,7134.16Zm-.93-20.62.1.16-.1-.16,0,0-.13-.22Zm-2.91-2.61-.09,0-.14-.2C7336.74,7111,7336.79,7110.93,7336.79,7110.93Zm-63.09-55.72a32.17,32.17,0,0,0-4-2A12.48,12.48,0,0,1,7273.7,7055.21Zm-12.61-6a3,3,0,0,1,1,.21l.4.26A5.13,5.13,0,0,0,7261.09,7049.25Zm1.35-.87c.22-.35-.65-1.13-1.76-2C7261.79,7047.25,7262.7,7047.94,7262.44,7048.38Zm-23.95-13.29,1.06.51-2.66-.92Zm-21.27-12.86c.94.2,1.88.42,3.3.74l.45.15a17.74,17.74,0,0,0-3.81-.72Zm-39.9-22.07c-.21.06-.32.11-.68.19v-.08Zm-35.7,1.18.49,0-2,.09ZM6997.94,7105.2c0,.19,0,.51,0,.79l0,0A1.46,1.46,0,0,1,6997.94,7105.2Zm-.31,1.23,0,.06c-.25.11-.54.27-.81.39C6997.11,7106.68,6997.37,7106.58,6997.63,7106.43Zm-39.54,129.16c-.09.3-.18.6-.4.34l0-.46C6957.88,7236,6958,7235.82,6958.09,7235.59Zm4.94,39.12,0,.06h0Zm22,43-1.68-4.16c.23.32.45.66.7,1a18.22,18.22,0,0,0,1.55,4Zm14.31,27.43a65,65,0,0,1-8.61-16.54c-.21-.69-.49-1.39-.77-2.09a18.34,18.34,0,0,1,1.59,3c.47,1.58,2.09,3.8,3.27,5.71a13.17,13.17,0,0,0,1,1c4.47,6,8.44,12.39,14.19,17.83-.13.15-.26.3-.4.49C7008,7355.68,7003.51,7350.23,6999.31,7345.1Zm12.5-40.54c1.13,0,1.41-1.57.91-4.32h0c.34,1.7.67,3.38,1,4.87C7014.45,7308.09,7012.81,7305.77,7011.81,7304.56Zm2.47,37.71c.25.12-.28-1,.37-.25s.14.49.44,1.13Zm14.11.13.22-.16c.18-.14.84.76,1,.67C7029.4,7343,7028.59,7342.26,7028.39,7342.4Zm6.21,9.31c.62.36,1.78,1.71,2.29,1.88.29.35,0,0,.13.19l.78.8-.37-.29A21.5,21.5,0,0,1,7034.6,7351.71Zm3.06,41-.33-.37,1.5,1.36Zm8.39-3.6a.74.74,0,0,1-.06-.23c-1.42-1.57-2.26-2.91-3.62-4.46l-.43-.26s.25.1.05-.06l.38.32c3.36,2.68,3.81,3.73,3.62,4.46.28.31.43.56.77.9Zm15-25.22,1.68.64c-.32,0,.08.54.15.79A15.79,15.79,0,0,1,7061.09,7363.91ZM7072,7388.5l.06-.08.14.19C7072,7388.48,7072,7388.5,7072,7388.5Zm22.42,1.74a8.44,8.44,0,0,0,1.91.52C7095.69,7390.58,7095.55,7390.85,7094.43,7390.24Zm11,5.8c.2.08.21.06.21.06v0l-.2-.08c-.14,0-.24,0-.39-.05-.88.42-2.62,0-4.59-.7a11.21,11.21,0,0,1-2.83-1.14c-.12-.07-.18,0-.3-.11l-1.37-.63,1.67.74c1,.42,1.91.81,2.83,1.14,1.58.41,2.91.35,4.59.7a.64.64,0,0,0,.21,0c.11,0-.05-.08,0-.1l-1.76-2a2.75,2.75,0,0,1-.28-.19l.18.08c-.1-.14-.36-.33-.48-.48a46.43,46.43,0,0,1-5.67-4.22l0,.08-4.66-2.9,4.15,2.5.56.32a19,19,0,0,1,5.67,4.22c.33.22.54.45.88.66l-.4-.18.06.07c1.48,1,2.87,1.84,1.8,2Zm5.43.92-2.35-1c.81.29,1.74.8,2.78,1.09Zm12.06,15.69,0-.08v0Zm11.5-5.46c.26-.1-.56-.37-.52-.51a4.29,4.29,0,0,0,1.15.71Zm15.9,3.72v-.08l.42.16Zm10.43,1.48a29.59,29.59,0,0,0-3.47-1.54l4.08.22C7162.12,7411.53,7162.71,7412,7160.71,7412.39Zm16.58-13.14a5.43,5.43,0,0,0,1.59.44,1.14,1.14,0,0,0,.59.21v.06a1.54,1.54,0,0,1-.59-.27c-1-.19-1.4-.28-2-.4C7177.28,7399.3,7177.29,7399.25,7177.29,7399.25Zm2.12,3.19h.2a5.47,5.47,0,0,1-1.44.43A7.17,7.17,0,0,0,7179.41,7402.44Zm34.08,17.72a.57.57,0,0,1-.11.11,1.56,1.56,0,0,1-.68.63c.16-.16.45-.43.68-.63a.74.74,0,0,0,.08-.36c0,.28.74.41,1.24.61A10,10,0,0,0,7213.49,7420.16Zm17.86-20.86c-.82.26-1.89.72-2,.29-.38.12,0-.14-.63,0l0-.05c.19-.1.35-.15.51-.22l.08.3,1.25-.13.75-.16a3.45,3.45,0,0,1,.44-.13v0Zm41.29-18.93c-2.78,1.32-5.25,2.33-6.2,1.81-1.37-.4,1.46-2,3.8-3.53,1-.67,2.31-1.63,1.53-1.76-1.64.34-3.89,2-5.11,1.91,2.06-1.61,4.76-2.51,6.94-4.27-.52.13-.85.18-1,.08l-.26.08.16-.11.1,0c.48-.15.9-.27,1-.08a4.16,4.16,0,0,1,1.36-.83c2.86-1.09,5.82-3.84,8.83-5.12,4.15-2.07,7.39-5.15,10.82-8.5l.18-.1.3-.29-.16.13c2.51-3.5-.82-.64-2.88.89l-.93.75-.53.3c-1.68.43-4.57,3.14-6.26,3.5,7.08-5.64,14.38-11.36,20.57-18,.43-.43.89-.88,1.37-1.33a1.52,1.52,0,0,0-.13.25c-.43.83.32.27.87-.45.42-.52.79-1.09.79-1.09l-.08-.06c1.12-1.21,2.08-2.33,2.11-3.21a9.09,9.09,0,0,1,1.6-3.64c1.64-.8,4.07-3.2,5.15-3-.95,1.56-1.36,2.41-1.28,3-3.49,4.8-4.44,7.22-6.37,10.71-1.88,3.25-2.47,5.52-5.62,9.55-1.7,1.92-3.25,3.8-4.74,5.67-.41.29-.82.6-1.23.88A236.27,236.27,0,0,1,7272.64,7380.37Zm9.13-1.68.9-.53a3.67,3.67,0,0,0,.83-.39,4.26,4.26,0,0,1,1.07-.5,4.68,4.68,0,0,0-1.07.5A12,12,0,0,1,7281.77,7378.69Z" transform="translate(-6951.43 -6998.34)"/><path class="cls-1" d="M7009.86,7080.39c-.76,2.2-6.08,8-7,10.91C7011.3,7081.47,7011.67,7081.82,7009.86,7080.39Z" transform="translate(-6951.43 -6998.34)"/><path class="cls-1" d="M6956.36,7193.31c.71-2.47,1.2-6.39,2.11-8.56,2.35-4.72,2.57-11.75,4.66-17.41.44-1.29,1-3.06,1.64-4.8,1.46-2.89,2.25-7.51,3.94-10.54.71-1.68,1.24-3,1.78-4.24,2.07-5.8,4.12-11.48,7.39-16.5l.34-.85.35-.58c5.42-8.91,9.6-16.74,13.59-24.06l3.42-5.09c1.07-1.8,1.91-3.44,1.6-3.66a.1.1,0,0,0-.07-.08c1.19-2.08,2.4-4.15,3.66-6.18a216.65,216.65,0,0,0-33.6,58.94c-.16-.73-.89.66-1.46,2.35-1.31,4.16-3,8.36-4,12.43a52.73,52.73,0,0,0-3.42,12.17c-.63,2.73-1.2,5.22-1.83,8-.82,2.45-1.27,5.91-1.92,8.43a17.66,17.66,0,0,1-.43,2.54c-.92,2.25-1.11,5.56-1.43,8.81-.13.94-.28,2.1-.38,2.82-.24,1.14-.69,2.54-.81,3.47,0,3.55-.05,6.84-.08,10.37a2.71,2.71,0,0,0,.14.7c.16.25.25.25.41-.45a11,11,0,0,0,.69-2.83h-.06c.48-1.63.4-4.19.73-6.28a13.24,13.24,0,0,1,.12-2.1,19.7,19.7,0,0,0,1.13-6,20.51,20.51,0,0,1-.64,2.08l-.28.9,0-.25a5.92,5.92,0,0,0,.25-.65c.23-.74.43-1.43.64-2.08,1-2.7.72-7.88,1.8-11Z" transform="translate(-6951.43 -6998.34)"/><path class="cls-1" d="M7332.9,7077.61c-4.55-6.83-9.39-10.34-13.33-13.49C7324,7067.62,7328.62,7074.67,7332.9,7077.61Z" transform="translate(-6951.43 -6998.34)"/><path class="cls-1" d="M7356.2,7110.87c1.37,2.59,3,5.62,4.46,8.42a38.79,38.79,0,0,0,2.18,3.64c1.29,1.42.79-.37-.17-2.27-2.92-5.65-5.41-11.92-9.19-16.15l-1.45-2.2c-1.22-1.74-2.5-3.47-2.94-3.19-.62-.21.52,1.56,1.37,2.91C7352.45,7105.12,7354.35,7108.59,7356.2,7110.87Z" transform="translate(-6951.43 -6998.34)"/><path class="cls-1" d="M7027.07,7063.47a4.29,4.29,0,0,0-2,1.31l-2.19,2.48,2.14-1.45C7026.33,7064.79,7027.34,7063.79,7027.07,7063.47Z" transform="translate(-6951.43 -6998.34)"/><path class="cls-1" d="M7018,7072.64c.19-.46.3-.71.5-1.2l-2,1.6c.14.16-.57,1.12-.12.9A16.18,16.18,0,0,0,7018,7072.64Z" transform="translate(-6951.43 -6998.34)"/><path class="cls-1" d="M7362.28,7323c-.48.64-.6-.6-1.47,1.94-.16.51-.18,1.09-.06,1.15a18.19,18.19,0,0,0,1.57-2.19C7362.78,7322.9,7362.91,7322.09,7362.28,7323Z" transform="translate(-6951.43 -6998.34)"/><path class="cls-1" d="M7379.35,7181.82c.65.43,0-2.39-.23-3.95l-1.89-9.28c-.77-1.69-1.21-1.58-1.17.28l1.83,9.24C7378.41,7180.13,7379,7181.88,7379.35,7181.82Z" transform="translate(-6951.43 -6998.34)"/><polygon class="cls-1" points="329.04 48.24 329.95 49.1 329.5 48.41 329.04 48.24"/><path class="cls-2" d="M7187.47,7356.83V7229h42.89l6.42-49.8h-49.31v-31.79c0-14.43,4-24.25,24.67-24.25h26.37v-44.55a354.59,354.59,0,0,0-38.43-2c-38,0-64.05,23.21-64.05,65.84v36.72h-43V7229h43v127.8Z" transform="translate(-6951.43 -6998.34)"/></svg>