<svg id="Layer_1" data-name="Layer 1" xmlns="http://www.w3.org/2000/svg" xmlns:xlink="http://www.w3.org/1999/xlink" viewBox="0 0 480.34 489.45"><defs><style>.cls-1,.cls-10,.cls-11,.cls-12,.cls-13,.cls-14,.cls-15,.cls-16,.cls-2,.cls-3,.cls-4,.cls-5,.cls-6,.cls-7,.cls-8,.cls-9{fill-rule:evenodd;}.cls-1{fill:url(#radial-gradient);}.cls-2{fill:url(#radial-gradient-2);}.cls-3{fill:url(#radial-gradient-3);}.cls-4{fill:url(#radial-gradient-4);}.cls-5{fill:url(#radial-gradient-5);}.cls-6{fill:url(#radial-gradient-6);}.cls-7{fill:url(#radial-gradient-7);}.cls-8{fill:url(#radial-gradient-8);}.cls-9{fill:url(#radial-gradient-9);}.cls-10{fill:url(#radial-gradient-10);}.cls-11{fill:url(#radial-gradient-11);}.cls-12{fill:url(#radial-gradient-12);}.cls-13{fill:url(#radial-gradient-13);}.cls-14{fill:url(#radial-gradient-14);}.cls-15{fill:url(#radial-gradient-15);}.cls-16{fill:url(#radial-gradient-16);}.cls-17{fill:#fff;}</style><radialGradient id="radial-gradient" cx="6937.56" cy="7396.95" r="817.25" gradientTransform="translate(47.33 46.78) scale(0.99)" gradientUnits="userSpaceOnUse"><stop offset="0" stop-color="#f9ed32"/><stop offset="0.06" stop-color="#f8d939"/><stop offset="0.19" stop-color="#f5a54d"/><stop offset="0.37" stop-color="#f0536c"/><stop offset="0.45" stop-color="#ee2a7b"/><stop offset="0.6" stop-color="#9e2aa7"/><stop offset="0.74" stop-color="#5b2acd"/><stop offset="0.86" stop-color="#2a2ae8"/><stop offset="0.95" stop-color="#0b2af9"/><stop offset="1" stop-color="#002aff"/></radialGradient><radialGradient id="radial-gradient-2" cx="6937.65" cy="7397.03" r="817.13" xlink:href="#radial-gradient"/><radialGradient id="radial-gradient-3" cx="6937.63" cy="7396.78" r="817.1" xlink:href="#radial-gradient"/><radialGradient id="radial-gradient-4" cx="6937.08" cy="7397.13" r="818.75" xlink:href="#radial-gradient"/><radialGradient id="radial-gradient-5" cx="6937.64" cy="7397" r="817" xlink:href="#radial-gradient"/><radialGradient id="radial-gradient-6" cx="6934.49" cy="7397.24" r="822.81" xlink:href="#radial-gradient"/><radialGradient id="radial-gradient-7" cx="6937.62" cy="7397" r="817.01" xlink:href="#radial-gradient"/><radialGradient id="radial-gradient-8" cx="6937.63" cy="7397.1" r="817.26" xlink:href="#radial-gradient"/><radialGradient id="radial-gradient-9" cx="6937.63" cy="7396.99" r="817.01" xlink:href="#radial-gradient"/><radialGradient id="radial-gradient-10" cx="6937.7" cy="7396.75" r="816.69" xlink:href="#radial-gradient"/><radialGradient id="radial-gradient-11" cx="6937.56" cy="7396.98" r="817.08" xlink:href="#radial-gradient"/><radialGradient id="radial-gradient-12" cx="6937.66" cy="7397.89" r="818.86" xlink:href="#radial-gradient"/><radialGradient id="radial-gradient-13" cx="6937.54" cy="7397.39" r="817.91" xlink:href="#radial-gradient"/><radialGradient id="radial-gradient-14" cx="6938.42" cy="7397" r="815.62" xlink:href="#radial-gradient"/><radialGradient id="radial-gradient-15" cx="6937.59" cy="7396.98" r="817.04" xlink:href="#radial-gradient"/><radialGradient id="radial-gradient-16" cx="6934.72" cy="7399.92" r="823.29" gradientTransform="translate(-6879.83 -6899.25) scale(0.99)" xlink:href="#radial-gradient"/></defs><title>inst</title><path class="cls-1" d="M7190.82,7429.7c2.34-1.14,11.19-1.56,14.2-3.08C7190.52,7427.71,7190.51,7427.14,7190.82,7429.7Z" transform="translate(-6927.17 -6946.03)"/><path class="cls-2" d="M6932.67,7176c-1.82,9-.77,15.64-.14,21.26C6931.85,7191,6933.72,7181.68,6932.67,7176Z" transform="translate(-6927.17 -6946.03)"/><path class="cls-3" d="M7163.76,7429.46a4.75,4.75,0,0,0,2.61.54c1.05-.07,2.39-.16,3.69-.23-1.26-.24-2.07-.39-2.83-.55C7165.41,7429,7163.82,7429,7163.76,7429.46Z" transform="translate(-6927.17 -6946.03)"/><path class="cls-4" d="M7178.23,7429.42l-1.34.54,2.89.35c0-.23,1.34-.42.81-.61A18.41,18.41,0,0,0,7178.23,7429.42Z" transform="translate(-6927.17 -6946.03)"/><path class="cls-5" d="M7201.58,6950.2l25.37,5.62,9.66,2.92c7.06,1,13.93,5.55,20.37,7.38l-.46-.41,9.76,4.39c3.05,1,6.66,3.46,9.67,4.59,5.27,3,10.76,5.66,15.35,8.76,2.64,1.79,4.54,3.09,6.29,3.67l12.27,8.39c1.63.73,4.23,3.13,5.59,3.74a34.47,34.47,0,0,0,3.1,1.8c-1.76-2.47-4.9-4.71-7.74-6.77l-14.53-9.94c-4.3-3.08-8.34-6-12.65-7.29l-9.54-5.08c-5.12-2.09-11.32-5.94-16.51-7.21l-6.16-2.62c-3.74-1.53-7.39-3.41-10.43-3.59l-3.88-1.25a14,14,0,0,0-3.34-1l-3.07-.85a160.42,160.42,0,0,0-29.08-7.12c-2.6-.37-4.1-.27-4.18.26S7199,6949.74,7201.58,6950.2Zm91.27,33.53.22.16a15.19,15.19,0,0,1,3.17,2.09l-3.17-2.09a.87.87,0,0,0-.25-.1Z" transform="translate(-6927.17 -6946.03)"/><path class="cls-6" d="M7373.22,7332.29l-.11.16c-.13.2-.2.41-.33.6Z" transform="translate(-6927.17 -6946.03)"/><path class="cls-7" d="M7405.92,7230.4c0-.13,0-.28,0-.41,1-6.26,1.92-12.58,1.46-19.34a12.65,12.65,0,0,0-.56,1.57,19.86,19.86,0,0,0-.09-4l-.18-.87.11-1.15c.05-5.23.12-10.46.18-16-.16-.86-.33-1.72-.59-3.16a268.65,268.65,0,0,0-8.11-45.3c-.41-1.1-.93-2.43-1.24-3.26a388.38,388.38,0,0,0-12.93-36.81l-1.8-2.62c-.54-1.32-1-2.37-1.39-3.41a15,15,0,0,0-2.9-6.15c-4.15-7.75-7.57-16.31-12.79-21.73-7.21-8.88-15.26-20.38-23.9-29-4.22-4.47-6.66-9.11-11-13.19-4.2-3.75-4.91-2.27-10.92-7.24-6.46-4.88-12.71-10.44-19.69-15.47l-.41.55c-.1-.35-.38-.87.41-.55l-2.72-1.91-.4.55c-3-2-5.7-3.94-8.46-5.83l-3.12-1.28-1-.47-.62-.55c-2.4-1.92-5.87-3.07-7.14-4.69,1.6,0,6.84,3.08,7.32,2.32-9.68-6-15.74-8.33-19.83-8.1-1.91-1.09-4.61-2.47-4.41-2.88,1.57-1.29-2.69-2.74-8.2-4.6-4.5-1.45-5.83-1.07-5.68.06l-3-1.28a12.48,12.48,0,0,0-3.3-1.32l.42.37a30.79,30.79,0,0,0-3.27-1.4c-3.86-1.37-10-2.91-7.95-3.92,1.65-.69-.88-1.82-5.4-3.2-3.73-1.07-7.35-2.71-11.42-2.31,4.52,1.41,9.78,4,8.08,5-1.94-.35-4.18-.94-6.46-1.47a22.09,22.09,0,0,0-4.41-3.66c-.49-.64-1-1.19-3.21-1.75-.29-1.5-1.35-3-3.75-4.47,2.14.15,4.46.38,6.75.6a72.63,72.63,0,0,1,19.92,6.29,45,45,0,0,0,13.16,4.11l18.37,7.79a424.88,424.88,0,0,1,43.19,23.39l-.27-.12c7.78,4.82,14.54,11.91,22.08,17.56,2.93,1.87,6.39,5.3,9.78,8.8l3.52,3.37c2.39,2.11,4.85,4.91,7.18,7.44,7.22,8.89,14.12,16.63,20.17,25.07l-.56-1.33.31.47.25.86c2,2.88,4.16,6.57,6,8.16l1,1.43.82,1.49c3,5.34,5.45,11.49,8.62,15.41a28.39,28.39,0,0,1,1.62,2.78c1.62,3.68,3.39,7.34,4.94,10.14.34.82.4.79.56.73.26.22.26-.1.09-1-2-8.89-6.07-17.8-12.25-27.37l-5.48-8.64c-10.68-19.52-24.3-33.52-39.22-45.55a24,24,0,0,0-5.34-4.46,25.11,25.11,0,0,0-5.47-3.84c-2-1.63-3.58-2.91-5.13-4.17-2.85-2.43-5.46-4.68-8.31-7.12-12-10.43-26-18.28-40.32-24.7-6.47-3-13.62-5.2-20.45-8.8-5-2.84-11.72-5.53-9.53-2.18.33.74-4-.55-6.76-1.4-5.18-1.48-11.09-3.59-16.68-4.74a7.85,7.85,0,0,1-2.21-.54,9.72,9.72,0,0,0-3.88-.81,7.72,7.72,0,0,1-2.51-.53,150.28,150.28,0,0,0-14.7-4,35.74,35.74,0,0,0-6.4-1.34c-.3-.61-1.2-1.11-3.84-1.42a24.34,24.34,0,0,0-3.57-.53l-.87.14-.31,0,1.18-.16c-.6-.54-1.8-.86-4.78-.87l-.31-.1v.06c-.29-.38-1.49-.5-3.6-.53a6.63,6.63,0,0,1-2.38.13c-5.53.43-11.08,1.21-16.61,2.18a48.87,48.87,0,0,0-9.51.28,250.14,250.14,0,0,0-39.55,5.69l0,.11,0,.1-.06-.21c-5.87-.09-13.33,3.21-20,4.73-3,.11-6.81,1.4-10,2.64a40.26,40.26,0,0,0-7.72,2.3c-3.53,1.28-2.11,1.71-4.16,2.72a11.13,11.13,0,0,0-3.4,2.25c-.93.73-5.36,2.72-4.23,3.13.5.39,1.47.46,3.7-.09.94.68,3.57.34,7.39-.72l.72-.43,0,0a3.07,3.07,0,0,0-.74.39l8,1.38c.33.9,1.43,1.46,4.91.74-1.89,1.16-3.74,2.36-5.46,3.63-5.08,2.91-11.91,5.28-14.76,9.08-6.87,5-15,9.83-20.47,15.66l.45-.36c-3.23,3.44-8.56,6.6-10.82,9.8l0,0c-1.42,1.5-4,3.4-5.39,5.31l-.48.75-.89.74-9.43,9.22c-4.16,3.31-8.33,6.82-11.57,11.59-4.31,5.85-12.66,15-17.38,22.41-4.78,7.86-12.13,15.42-14.7,23.68l.39-.35c-.2.47-.24.44-.24.44l-.15-.09a222.2,222.2,0,0,0-13,26.33,86.57,86.57,0,0,0-6.52,17.88c-.49,1.56-1,3.11-1.44,4.69-4.26,12-7.71,24.9-8.93,38.2-.84,6.91-1.63,13.07-.42,18.76a3.24,3.24,0,0,1-.13,2.05,20.34,20.34,0,0,0-.74,6.18c-1.44,6.22.1,12.89.46,19.31l.19.23h0v0s-.13,0-.19-.23c-.55,2.66-.17,6.8.57,10.35h.05c-.37,2.41.93,6.91,1.07,10.07a4.77,4.77,0,0,1,.28,2.06c-.31,1.39,0,3.69.63,6.5.47,4.15,1.54,8.48,3.41,11.47h0A29.56,29.56,0,0,0,6942,7267c1.1,3.63,2.12,7,3.15,10.33,2.14,5.1,3.8,12.21,6.57,16.78.86,2.15,1.74,4.31,2.5,6.2,1.58,3.74,2.82,7.65,4.84,9.91.67,1.31,1.33,2.61,1.87,3.64a13.4,13.4,0,0,0,1.65,3.07c.57,1,1,1.76,1.58,2.77a160,160,0,0,0,15.52,25.59c1.58,2.1,2.7,3.09,3.14,2.78s-.3-1.93-1.79-4.06l-14-21.93-4.78-8.89c-4.28-5.7-5.92-13.77-9.17-19.62l0,.62c-1.34-3.52-2.47-6.5-3.8-10-1.46-2.84-2.27-7.15-3.59-10.07-.43-1.59-.9-3.16-1.37-4.73.16.28.28.57.45.83l0,0c.38.68.63,1.11,1,1.82-.15-.74-.26-1.24-.4-1.94l0,.16V7270l0,.1a16.69,16.69,0,0,0-.22-2.75c.17-1.42-.44-3.88-1.08-6.36l-.14,0-.06,0,.2-.06a9.94,9.94,0,0,0-.16-2.12,198.4,198.4,0,0,0,7,21.76c2.42,6.73,6,13.31,8.23,20.68,1.57,5.57,4.39,12.2,5.2,8.28.29-.75,2.47,3.25,3.79,5.77,2.62,4.71,5.3,10.38,8.44,15.15a8,8,0,0,1,1.19,1.94,9.85,9.85,0,0,0,2.16,3.32,7.46,7.46,0,0,1,1.41,2.15c6.87,13.46,15.36,26.24,28.25,36.39a48,48,0,0,1,4.93,5.14c2,3.26,5.58,6.59,8.95,9.26a251.58,251.58,0,0,0,32,23.94l.05-.1.07-.1-.12.2c4.09,4.21,11.7,7.15,17.51,10.8,2.19,2,5.79,3.83,8.93,5.22a40.3,40.3,0,0,0,7.09,3.83c3.41,1.58,2.7.27,4.87,1a11,11,0,0,0,4,.8c1.18.14,5.7,1.87,5.2.77-.08-.62-.71-1.35-2.68-2.54-.18-1.14-2.28-2.76-5.73-4.72l-.82-.2,0,0a2.34,2.34,0,0,0,.79.25l-4.7-6.65c.47-1.05-.11-2.48-4.85-5.15-.45-.94-1.42-2.06-1.83-3.11,3.44,1.6,7.22,3.11,10.53,4.27,3.57,1.23,5.67,1.11,5.94.45.86-.75-3.14-2.21-5.52-3.43-2.87-1.42-5.07-3-5.23-3.87-.33-1.14,3.81.6,5.9,1.07,7.22,1.77,16.36,6.46,24.57,7.56,3.81.87,8.63,3.13,12,2.69l-.23-.18.26.06,0,.12c5.62,1.14,11.37,2.91,16.15,2.83a7,7,0,0,1-1.23-.53l.26.06,1,.47c5.11.8,11.29,1.94,15.53,1.33l-.51-.18.52.07v.11c8.23.36,16.76,2.63,25.86.88,7.19-1.09,19.59-1.67,28.15-3.55,8.93-2.18,19.47-2.32,27.14-6.35l-.53,0c.46-.2.48-.15.48-.15l.05.18a217.77,217.77,0,0,0,49.42-19.74,164.48,164.48,0,0,0,29.55-17.79l.05,0c.36.4,1.33.19,3.19-1.19l.93-1.12,0,0s-.57.65-1,1.08a8.66,8.66,0,0,0,3.21-.66c-2.34,1.83-4.9,4.23-7.21,5.37l.21-.17c-2.53,1.41-6,4.12-8.46,5.12-5.59,1.88-11.34,7.28-17.48,10.1l-5.11,2.5c-3.45,1.13-7.72,4.17-11.47,5.23l-4.77,2c-6.25,3-12.36,5.84-18.93,7.22l-.94.4-.74.19c-19.42,4.72-33.57,9.86-48.54,13.36,28.46-3,56.1-11.52,81.57-23.89l5.58-2.83c4.7-1.16,9.78-4.43,14.54-7.68l7.77-4.88c2.59-1.3,5.69-3.68,8.21-5.17a19.24,19.24,0,0,1,2.34-1.66c2.52-1.06,5.28-3.53,8.12-5.85l2.53-1.94c1.1-.71,2.56-1.46,3.39-2.11,1.23-1.21,2.42-2.36,3.59-3.53a10.58,10.58,0,0,0,3.43-2.62l.29-.16-.05,0c.48.05,1.41-.71,2.93-2.18a6.43,6.43,0,0,1,1.58-1.76c7.92-9.23,14.74-19.65,21.06-29.94a95.67,95.67,0,0,0,6.43-11.32,31.26,31.26,0,0,0,4.4-7.53c.78-1.08,1.58-2.12,2.43-3.1,4.89-12.73,10.29-25.87,12.18-38.26,1.54-5.66,4.7-12.16,4-16.85,1.32-8.4,3.66-17.57,3.41-25.55Zm-45.77-179.57-.14.1s.07-.06,0-.33Zm-297.92-83.26c-.06-.15-.42-.26.36-.66.23-.22.78-.32,1-.5C7062.93,6967,7062.16,6967.39,7062.23,6967.57Zm29.59,462.7c-.06.16.12.48-.72.22-.31,0-.78-.33-1.08-.37C7090.9,7430.21,7091.75,7430.45,7091.82,7430.27Zm299.34-242.92-.12,0v-.54Zm-1.49,32.29c.3-5.14.75-10.31-.07-14.94C7390.59,7208.82,7390,7214.23,7389.67,7219.64Zm.39-97.48c-.24-.23-.76-1.54-1.06-1.73l-.45-1.94C7389.08,7119.8,7389.74,7121.39,7390.06,7122.16Zm-2,29.69.11,0c-.06.29-.16,1.14-.37.64A3.57,3.57,0,0,0,7388.11,7151.85Zm-4.61,48.69h.06l-.07.28Zm-5.4-18.37a9.91,9.91,0,0,1,.25,2.31c-.14,2.06-.5-.21-.81-1.24C7377.79,7183.22,7378.05,7183.2,7378.1,7182.17Zm-3.2,36.23.17,0-.11.51C7374.88,7219.17,7374.9,7218.4,7374.9,7218.4Zm-49,126.58c.38-.71.78-1.44,1.19-2.17.24-3.52,4.71-9.72,8.07-16.87-1.35,5.16-4.89,11.12-8.07,16.87a5.21,5.21,0,0,0-.17,1Zm-302-3.56c-.26-.15-.63-.55-.87-.65l0,0-.15-.17c-.54-.54-.37-.36-.54-.54l0,0a4.77,4.77,0,0,1,.52.56l.19.14.46.28A4.57,4.57,0,0,0,7023.83,7341.42Zm-41.31-12.25-.3-.39c.44.28.62.15.5-.38a.65.65,0,0,0-.09-.14l.15.12c-2.2-4.2-4.07-9.77-2.2-9.24,2.2,3.16,4.57,7.78,7.28,10.94l4,5.87c2.14,5.22,2.56,6.25,1.47,7.83-1.31-2.3-3.25-4.59-5.26-7.4-.9-2.55-3.24-5.18-5.36-8C6982.84,7328.93,6982.71,7329,6982.52,7329.17Zm6.53-76.46.19,0v.5Zm-3.11,14.09a1.51,1.51,0,0,0-.91-.5,6.81,6.81,0,0,1-1.19,3.23c.27-1.35.22-3.39,1.19-3.23a15.53,15.53,0,0,0,.29-2.88C6985.73,7264.83,6985.45,7265.42,6985.94,7266.8Zm-7.53,41.49-.24-.46a21.35,21.35,0,0,0,2.45,3.58l-.18.09C6979.86,7310.58,6979.28,7309.68,6978.41,7308.29Zm-3.7-22.25-.94-1.6c-.17-.48-.34-1-.43-1.24Zm-7.35-30.51c-.19.05-.53-.41-.88-1.13l-.11-.53C6966.66,7254.64,6967.1,7255.59,6967.36,7255.53ZM6946,7236a4.24,4.24,0,0,1-.36-.94h0A2.38,2.38,0,0,0,6946,7236Zm6.13,22.55c-.45.13-.2,1.57.31,3.51a11.61,11.61,0,0,1-1.23-3.77C6951.28,7257.5,6951.77,7258.11,6952.13,7258.54Zm11.26-13.14a14.2,14.2,0,0,1-1.57-4.78A34.73,34.73,0,0,0,6963.39,7245.4Zm1.71,12.57c-.15-1.6-.33-2.89.23-3C6964.88,7255.05,6965,7256.37,6965.1,7258Zm-22.26-73.92,0,.48h-.11v-.23l0-.25Zm-1.43,9.58v.23l-.06.26c-.16,1.28-.28,2.34-.42,3.46,0,.33,0,.64-.05,1v-.51c0-.16,0-.33.05-.49a21.52,21.52,0,0,1,.42-3.46Zm-3.94,37.44a.64.64,0,0,0,.59-.28c.07.78.13,1.27.2,2a9.63,9.63,0,0,0-.79-1.74c-.62-.08-1.3-1.13-1.95-2.21A6.45,6.45,0,0,1,6937.47,7231.07Zm30.55,64.07c.51,1.27.81,2,1.23,3a12,12,0,0,0,1.41,3.26l-.05-.56a31.64,31.64,0,0,0,1.32,3.31c1.76,3.7,5,9.15,2.85,8.39-.6-.25-.84-.05-.81.49-.66-1.3-1.31-2.59-1.91-3.76l-.05,0c0-1.78-2.47-4.91-3.62-7.67a30.29,30.29,0,0,0-2.16-6.92C6967.05,7295.63,6967.63,7295.65,6968,7295.14Zm60-264,.07-.11h0Zm159.47-49.18,0,.31c0,.25-1.27.06-1.29.23C7186.19,6982.21,7187.45,6982.21,7187.49,6981.93Zm-15.59-2.13c-.51-.05,0,0-.25-.05h-1.26l.52-.07a26,26,0,0,1,4.29-.21C7174.43,6979.68,7172.43,6979.54,7171.9,6979.8Zm3.31,2.32v0a3.12,3.12,0,0,1-.76,0l-.24,0-.51.11c-.21,0-.37,0-.57,0,.3-.08.84-.06,1.08-.15v-.06l.23,0ZM7343.15,7284a3.12,3.12,0,0,1,.71-1.27l.13.06C7343.74,7283.19,7343.08,7284.73,7343.15,7284Zm.55,1.64-.21.37.06-.45a2.62,2.62,0,0,0-.22.25,1.08,1.08,0,0,0,0-.16s.16-.1.28-.26l-.08.17Zm24.16-68.93c-.09.72-.13,1-.26,2a2.7,2.7,0,0,0-.21-1.26C7367.58,7216.66,7367.72,7216.93,7367.86,7216.69Zm-4.6-118.48.14.3-.12-.25v0l-.32-.69a6.54,6.54,0,0,1-.17-.78A5.59,5.59,0,0,0,7363.26,7098.21Zm-1-23.1.11.18-.07-.12c-.05-.09-.05-.08-.05-.08l-.16-.26S7362.12,7075,7362.22,7075.11Zm-3.26-2.92-.1.05-.15-.23C7358.9,7072.22,7359,7072.19,7359,7072.19Zm-70.69-62.44a36.69,36.69,0,0,0-4.5-2.28A14.18,14.18,0,0,1,7288.27,7009.75Zm-14.13-6.67a3.56,3.56,0,0,1,1.08.22l.44.3A5.83,5.83,0,0,0,7274.14,7003.08Zm1.51-1c.24-.39-.72-1.26-2-2.28C7274.93,7000.83,7276,7001.6,7275.65,7002.09Zm-26.83-14.88,1.19.57-3-1ZM7225,6972.8l3.7.83.51.16a21.77,21.77,0,0,0-4.28-.81Zm-44.71-24.73a7,7,0,0,1-.76.21v-.08Zm-40,1.33.56,0-2.27.1Zm-161,116.36c0,.22,0,.58,0,.89l0,0A1.78,1.78,0,0,1,6979.28,7065.76Zm-.34,1.38,0,.07c-.29.12-.61.3-.92.44C6978.35,7067.43,6978.65,7067.31,6978.94,7067.14Zm-44.31,144.73c-.1.33-.2.66-.44.38l0-.52C6934.4,7212.28,6934.52,7212.12,6934.63,7211.87Zm5.54,43.82,0,.08h0Zm24.61,48.14c-.64-1.58-1.25-3.12-1.88-4.66.26.36.51.74.78,1.1a21.15,21.15,0,0,0,1.74,4.5C6965.21,7304.46,6965,7304.13,6964.78,7303.83Zm16,30.74a72.43,72.43,0,0,1-9.64-18.53c-.24-.78-.56-1.56-.88-2.34a20.87,20.87,0,0,1,1.79,3.35c.52,1.78,2.34,4.26,3.67,6.4a12.78,12.78,0,0,0,1.13,1.08c5,6.76,9.47,13.88,15.9,20-.14.17-.28.33-.44.54C6990.5,7346.42,6985.53,7340.31,6980.82,7334.57Zm14-45.42c1.26-.06,1.58-1.77,1-4.85h0c.39,1.91.75,3.79,1.09,5.46C6997.77,7293.1,6996,7290.5,6994.83,7289.15Zm2.77,42.24c.27.14-.32-1.05.4-.27s.16.55.5,1.26Zm15.8.16.25-.19c.21-.15,1,.85,1.08.75C7014.52,7332.26,7013.63,7331.38,7013.4,7331.55Zm7,10.43c.69.4,2,1.9,2.57,2.1.32.39,0,0,.14.22l.88.89-.41-.33A23,23,0,0,1,7020.36,7342Zm3.43,46-.37-.42,1.69,1.53Zm9.4-4c0-.07-.09-.2-.07-.26-1.59-1.77-2.53-3.27-4.05-5l-.48-.3s.26.12.05-.06l.43.36c3.76,3,4.27,4.18,4.05,5,.31.34.48.63.86,1Zm16.85-28.26,1.89.71c-.36.05.09.6.16.89A18.78,18.78,0,0,1,7050,7355.65Zm12.24,27.55.06-.1.16.22C7062.3,7383.18,7062.28,7383.2,7062.28,7383.2Zm25.12,1.95a9.63,9.63,0,0,0,2.13.58A5,5,0,0,1,7087.4,7385.15Zm12.28,6.49c.22.1.23.08.23.08v0l-.22-.1c-.16,0-.27,0-.43-.05-1,.47-2.94,0-5.15-.79a12.43,12.43,0,0,1-3.17-1.27c-.13-.08-.2,0-.34-.12l-1.54-.71,1.88.83c1.08.47,2.14.9,3.17,1.27,1.77.46,3.26.39,5.15.79l.23,0c.12,0-.06-.08-.06-.08-.63-.82-1.15-1.41-1.88-2.23a3.45,3.45,0,0,1-.32-.2l.21.08c-.11-.15-.4-.37-.54-.53a52.16,52.16,0,0,1-6.35-4.74l-.06.1-5.23-3.26,4.65,2.81.64.35a21.12,21.12,0,0,1,6.35,4.74c.37.24.61.5,1,.73l-.45-.2.07.08c1.65,1.07,3.21,2.06,2,2.24C7099.56,7391.52,7099.62,7391.56,7099.68,7391.64Zm6.08,1-2.62-1.13a31.66,31.66,0,0,0,3.11,1.22Zm13.52,17.58,0-.09v0Zm12.88-6.11c.29-.12-.62-.41-.58-.58a4.59,4.59,0,0,0,1.29.8Zm17.82,4.16v-.09l.47.19Zm11.68,1.67a32.15,32.15,0,0,0-3.89-1.73l4.57.25C7163.24,7409,7163.91,7409.54,7161.66,7410Zm18.58-14.73a5.79,5.79,0,0,0,1.79.49,1.21,1.21,0,0,0,.65.24v.07a1.65,1.65,0,0,1-.65-.31c-1.11-.21-1.57-.31-2.22-.44C7180.23,7395.3,7180.24,7395.24,7180.24,7395.24Zm2.38,3.58h.22a6.6,6.6,0,0,1-1.61.48A9.37,9.37,0,0,0,7182.62,7398.82Zm38.19,19.85-.13.12a1.7,1.7,0,0,1-.76.71c.18-.18.51-.48.76-.71a.89.89,0,0,0,.09-.4c0,.31.82.47,1.39.68A11.07,11.07,0,0,0,7220.81,7418.67Zm20-23.37c-.91.29-2.11.8-2.24.33-.42.13,0-.17-.71,0a.28.28,0,0,0,.06-.06,5,5,0,0,1,.56-.24l.09.34,1.41-.16.83-.17a4.51,4.51,0,0,1,.5-.15v.05Zm46.27-21.22c-3.12,1.49-5.88,2.62-6.95,2-1.54-.46,1.63-2.24,4.26-4,1.14-.76,2.59-1.82,1.72-2-1.84.38-4.37,2.29-5.73,2.14,2.31-1.81,5.34-2.82,7.78-4.79-.59.15-1,.21-1.14.1l-.29.08.18-.12.11,0c.54-.18,1-.31,1.14-.1a4.71,4.71,0,0,1,1.52-.93c3.2-1.22,6.52-4.3,9.89-5.74,4.65-2.32,8.29-5.77,12.13-9.51l.2-.12.34-.32-.18.14c2.81-3.92-.92-.72-3.23,1l-1,.84-.6.34c-1.88.48-5.12,3.52-7,3.92,7.93-6.33,16.11-12.73,23-20.16.48-.48,1-1,1.54-1.49a2.34,2.34,0,0,0-.14.28c-.48.93.36.3,1-.51a13,13,0,0,0,.88-1.22.43.43,0,0,0-.09-.06c1.27-1.35,2.33-2.62,2.37-3.6a10.31,10.31,0,0,1,1.79-4.08c1.84-.9,4.57-3.59,5.77-3.32-1.06,1.74-1.52,2.7-1.43,3.37-3.91,5.38-5,8.09-7.14,12-2.11,3.65-2.76,6.19-6.29,10.71-1.91,2.14-3.65,4.26-5.32,6.35-.45.33-.91.67-1.38,1A262.87,262.87,0,0,1,7287.08,7374.08Zm10.24-1.88,1-.59a4.83,4.83,0,0,0,.93-.43,4.64,4.64,0,0,1,1.2-.57,5.66,5.66,0,0,0-1.2.57A13.25,13.25,0,0,1,7297.32,7372.2Z" transform="translate(-6927.17 -6946.03)"/><path class="cls-8" d="M6992.64,7038c-.85,2.46-6.82,9-7.86,12.22C6994.25,7039.18,6994.67,7039.57,6992.64,7038Z" transform="translate(-6927.17 -6946.03)"/><path class="cls-9" d="M6932.7,7164.49c.79-2.77,1.34-7.16,2.36-9.59,2.62-5.29,2.88-13.17,5.22-19.5.49-1.45,1.16-3.44,1.84-5.38,1.63-3.25,2.52-8.42,4.41-11.82.8-1.88,1.39-3.32,2-4.75,2.32-6.5,4.62-12.86,8.29-18.48l.38-1,.39-.65c6.07-10,10.75-18.76,15.23-27l3.83-5.7c1.2-2,2.14-3.86,1.79-4.1a.08.08,0,0,0-.05-.07c1.31-2.36,2.66-4.67,4.08-6.94a242.08,242.08,0,0,0-37.65,66c-.19-.82-1,.74-1.63,2.63-1.47,4.65-3.33,9.37-4.47,13.92-1.83,3.92-2.94,8.83-3.83,13.64-.71,3.06-1.34,5.86-2.05,8.94-.92,2.75-1.43,6.63-2.16,9.45a17.8,17.8,0,0,1-.48,2.84c-1,2.53-1.24,6.23-1.6,9.88-.14,1-.31,2.35-.42,3.16-.27,1.27-.77,2.84-.91,3.89,0,4-.06,7.65-.09,11.62a3.11,3.11,0,0,0,.16.78c.17.27.28.27.46-.51a12,12,0,0,0,.77-3.17h-.06c.53-1.82.44-4.69.81-7a15.35,15.35,0,0,1,.13-2.36c.79-1.79,1-3.86,1.27-6.72a23.24,23.24,0,0,1-.71,2.33c-.11.33-.21.64-.32,1l0-.28a6.47,6.47,0,0,0,.3-.73c.25-.82.48-1.6.71-2.33,1.13-3,.81-8.83,2-12.36Z" transform="translate(-6927.17 -6946.03)"/><path class="cls-10" d="M7354.6,7034.85c-5.1-7.65-10.52-11.58-14.93-15.11C7344.57,7023.66,7349.81,7031.55,7354.6,7034.85Z" transform="translate(-6927.17 -6946.03)"/><path class="cls-11" d="M7380.7,7072.12c1.53,2.9,3.34,6.3,5,9.43a43.9,43.9,0,0,0,2.44,4.08c1.45,1.6.9-.42-.18-2.54-3.27-6.33-6.07-13.35-10.31-18.1-.49-.73-1-1.47-1.62-2.46-1.36-1.95-2.8-3.89-3.29-3.58-.69-.24.58,1.75,1.54,3.26C7376.5,7065.67,7378.64,7069.56,7380.7,7072.12Z" transform="translate(-6927.17 -6946.03)"/><path class="cls-12" d="M7011.93,7019a4.74,4.74,0,0,0-2.21,1.47c-.71.79-1.59,1.8-2.45,2.78l2.39-1.63C7011.09,7020.49,7012.22,7019.37,7011.93,7019Z" transform="translate(-6927.17 -6946.03)"/><path class="cls-13" d="M7001.73,7029.28l.57-1.34-2.3,1.8c.16.17-.64,1.25-.13,1A16.67,16.67,0,0,0,7001.73,7029.28Z" transform="translate(-6927.17 -6946.03)"/><path class="cls-14" d="M7387.52,7309.75c-.54.71-.67-.67-1.65,2.17-.18.58-.2,1.22-.07,1.29a20.83,20.83,0,0,0,1.77-2.45C7388.08,7309.69,7388.23,7308.78,7387.52,7309.75Z" transform="translate(-6927.17 -6946.03)"/><path class="cls-15" d="M7406.65,7151.61c.73.49,0-2.67-.27-4.42l-2.11-10.4c-.86-1.9-1.36-1.76-1.31.32l2.05,10.35C7405.59,7149.73,7406.22,7151.69,7406.65,7151.61Z" transform="translate(-6927.17 -6946.03)"/><polygon class="cls-16" points="368.67 54.05 369.7 55.02 369.2 54.25 368.67 54.05"/><path class="cls-17" d="M7218,7316.9H7116.7a81.62,81.62,0,0,1-81.53-81.52v-89.26a81.62,81.62,0,0,1,81.53-81.51H7218a81.61,81.61,0,0,1,81.51,81.51v89.26A81.61,81.61,0,0,1,7218,7316.9ZM7116.7,7082.73a63.47,63.47,0,0,0-63.41,63.39v89.26a63.48,63.48,0,0,0,63.41,63.4H7218a63.46,63.46,0,0,0,63.39-63.4v-89.26a63.45,63.45,0,0,0-63.39-63.39Z" transform="translate(-6927.17 -6946.03)"/><path class="cls-17" d="M7167.34,7263.32a72.57,72.57,0,1,1,72.56-72.57A72.65,72.65,0,0,1,7167.34,7263.32Zm0-127a54.45,54.45,0,1,0,54.44,54.45A54.52,54.52,0,0,0,7167.34,7136.3Z" transform="translate(-6927.17 -6946.03)"/><path class="cls-17" d="M7253.84,7120.42a15.06,15.06,0,1,1-15.05-15.06A15,15,0,0,1,7253.84,7120.42Z" transform="translate(-6927.17 -6946.03)"/></svg>