<svg id="Layer_1" data-name="Layer 1" xmlns="http://www.w3.org/2000/svg" viewBox="0 0 492.48 501.81"><defs><style>.cls-1{fill:#7bc5f8;fill-rule:evenodd;}.cls-2{fill:#fff;}</style></defs><title>twitter</title><path class="cls-1" d="M7196,7444.2c2.4-1.17,11.48-1.6,14.56-3.16C7195.71,7442.16,7195.71,7441.58,7196,7444.2Z" transform="translate(-6925.7 -6948.31)"/><path class="cls-1" d="M6931.34,7184c-1.86,9.26-.77,16-.14,21.8C6930.5,7199.44,6932.42,7189.91,6931.34,7184Z" transform="translate(-6925.7 -6948.31)"/><path class="cls-1" d="M7168.28,7444a4.82,4.82,0,0,0,2.67.54l3.79-.23-2.92-.56C7170,7443.5,7168.33,7443.49,7168.28,7444Z" transform="translate(-6925.7 -6948.31)"/><path class="cls-1" d="M7183.11,7443.91l-1.37.56,3,.36c0-.24,1.36-.44.81-.63A18.59,18.59,0,0,0,7183.11,7443.91Z" transform="translate(-6925.7 -6948.31)"/><path class="cls-1" d="M7207,6952.59l26,5.76,9.91,3c7.22,1,14.27,5.69,20.88,7.57l-.48-.42c3.52,1.57,6.5,2.92,10,4.5,3.12,1,6.83,3.55,9.9,4.71,5.42,3.09,11,5.79,15.74,9,2.71,1.83,4.67,3.17,6.46,3.76l12.58,8.6c1.66.74,4.33,3.21,5.72,3.84a34.89,34.89,0,0,0,3.19,1.84c-1.82-2.54-5-4.82-7.94-6.95l-14.89-10.18c-4.41-3.16-8.56-6.19-13-7.48l-9.78-5.2c-5.26-2.15-11.6-6.1-16.93-7.4l-6.3-2.69c-3.84-1.56-7.59-3.49-10.7-3.67l-4-1.28a14,14,0,0,0-3.41-1l-3.16-.87a164.1,164.1,0,0,0-29.81-7.3c-2.66-.38-4.2-.28-4.29.26S7204.42,6952.12,7207,6952.59Zm93.58,34.38.23.15a15.37,15.37,0,0,1,3.24,2.15l-3.24-2.15a1.39,1.39,0,0,0-.26-.1Z" transform="translate(-6925.7 -6948.31)"/><path class="cls-1" d="M7383,7344.32l-.1.17c-.13.2-.21.43-.34.62Z" transform="translate(-6925.7 -6948.31)"/><path class="cls-1" d="M7416.54,7239.87c0-.14,0-.29,0-.43,1.07-6.42,2-12.89,1.51-19.83a14,14,0,0,0-.58,1.61,20.8,20.8,0,0,0-.08-4.05l-.19-.89.1-1.19c.07-5.36.12-10.72.19-16.38-.15-.88-.32-1.76-.6-3.24a275.07,275.07,0,0,0-8.31-46.45c-.44-1.12-.95-2.49-1.27-3.33-3.8-12.93-8-24.75-13.26-37.74-.5-.73-1.35-2-1.85-2.7-.55-1.35-1-2.42-1.43-3.49a15.28,15.28,0,0,0-3-6.31c-4.25-7.94-7.76-16.71-13.12-22.27-7.39-9.1-15.63-20.9-24.49-29.69-4.33-4.59-6.84-9.35-11.26-13.53-4.31-3.85-5.05-2.33-11.2-7.42-6.63-5-13-10.71-20.2-15.87l-.42.57c-.09-.36-.39-.89.42-.57l-2.79-1.95-.41.57-8.66-6-3.2-1.3-1-.48-.64-.57c-2.46-2-6-3.15-7.32-4.81,1.65,0,7,3.15,7.51,2.37-9.93-6.15-16.13-8.53-20.34-8.29-1.95-1.12-4.71-2.54-4.51-3,1.6-1.32-2.76-2.8-8.42-4.71-4.6-1.49-6-1.1-5.82.05l-3.09-1.3a12.32,12.32,0,0,0-3.39-1.36l.44.38a32.22,32.22,0,0,0-3.36-1.44c-4-1.4-10.27-3-8.15-4,1.69-.7-.9-1.86-5.53-3.28-3.84-1.09-7.53-2.78-11.71-2.37,4.62,1.46,10,4.14,8.27,5.11-2-.36-4.27-1-6.62-1.51a22.62,22.62,0,0,0-4.52-3.75c-.49-.65-1-1.22-3.29-1.79-.29-1.54-1.39-3.1-3.84-4.59,2.2.16,4.57.39,6.92.62a74.41,74.41,0,0,1,20.43,6.45A46,46,0,0,0,7248,6970l18.84,8a437.21,437.21,0,0,1,44.28,24l-.28-.13c8,4.95,14.9,12.22,22.63,18,3,1.91,6.56,5.43,10,9l3.62,3.45c2.45,2.16,5,5,7.36,7.62,7.4,9.13,14.48,17.05,20.67,25.71l-.55-1.37.31.48.24.89c2,3,4.28,6.74,6.17,8.37l1.05,1.46.86,1.53c3,5.47,5.57,11.78,8.82,15.8a29,29,0,0,1,1.66,2.85c1.68,3.77,3.48,7.53,5.08,10.4.34.83.39.81.56.74.28.23.27-.1.09-1-2.07-9.12-6.21-18.25-12.55-28.06-1.62-2.55-3.86-6.09-5.63-8.86-10.94-20-24.9-34.37-40.21-46.7a24.59,24.59,0,0,0-5.46-4.57,25.61,25.61,0,0,0-5.61-3.94l-5.27-4.28c-2.92-2.49-5.6-4.8-8.51-7.3-12.32-10.69-26.63-18.74-41.35-25.32-6.63-3.12-14-5.33-21-9-5.17-2.9-12-5.66-9.77-2.23.34.76-4.13-.56-6.92-1.43-5.31-1.52-11.37-3.68-17.1-4.87a7.92,7.92,0,0,1-2.26-.54,10,10,0,0,0-4-.84,7.72,7.72,0,0,1-2.57-.54,155.41,155.41,0,0,0-15.09-4.08,36.8,36.8,0,0,0-6.54-1.38c-.32-.62-1.25-1.14-3.94-1.45a25.41,25.41,0,0,0-3.68-.55l-.89.15-.3,0,1.19-.17c-.6-.54-1.83-.88-4.89-.89l-.32-.1v.07c-.31-.39-1.53-.52-3.7-.55a6.47,6.47,0,0,1-2.43.13c-5.68.44-11.37,1.24-17,2.24a50,50,0,0,0-9.77.29,254.09,254.09,0,0,0-40.53,5.83l0,.11,0,.11-.06-.22c-6-.09-13.68,3.29-20.53,4.85-3.05.11-7,1.43-10.27,2.7a42.66,42.66,0,0,0-7.91,2.36c-3.61,1.32-2.16,1.75-4.27,2.79a11.66,11.66,0,0,0-3.48,2.31c-1,.75-5.48,2.78-4.32,3.21.51.4,1.49.47,3.78-.09,1,.69,3.65.34,7.58-.74l.73-.44,0,0a2.9,2.9,0,0,0-.76.4l8.23,1.41c.36.93,1.48,1.49,5,.76-1.93,1.19-3.82,2.42-5.59,3.73-5.21,3-12.21,5.4-15.12,9.3-7.06,5.13-15.4,10.08-21,16l.46-.36c-3.31,3.52-8.78,6.76-11.11,10.05l0-.05c-1.45,1.54-4.09,3.5-5.51,5.45l-.51.77-.9.76-9.68,9.45c-4.26,3.39-8.53,7-11.85,11.89-4.42,6-13,15.39-17.83,23-4.9,8.07-12.43,15.82-15.06,24.29l.4-.36c-.2.48-.26.45-.26.45l-.14-.09a230.39,230.39,0,0,0-13.38,27,90.31,90.31,0,0,0-6.69,18.33c-.5,1.6-1,3.2-1.46,4.81-4.38,12.32-7.91,25.53-9.17,39.16-.86,7.09-1.66,13.41-.42,19.24a3.31,3.31,0,0,1-.13,2.1,20.38,20.38,0,0,0-.77,6.34c-1.47,6.38.11,13.21.47,19.8l.19.23h.05l0,0v0s-.12,0-.19-.23c-.57,2.72-.16,7,.6,10.61h.05c-.39,2.47.95,7.09,1.1,10.32a5.15,5.15,0,0,1,.27,2.11c-.32,1.43,0,3.79.65,6.67.49,4.25,1.59,8.7,3.5,11.76h0a30.94,30.94,0,0,0,2.81,8.54c1.14,3.72,2.19,7.14,3.24,10.59,2.2,5.23,3.9,12.52,6.74,17.2.89,2.21,1.77,4.42,2.56,6.36,1.61,3.83,2.88,7.84,5,10.16l1.9,3.73a14.32,14.32,0,0,0,1.7,3.15l1.61,2.84a163.18,163.18,0,0,0,15.93,26.24c1.6,2.15,2.75,3.17,3.21,2.85s-.3-2-1.83-4.17c-4.61-7.23-9.85-15.44-14.32-22.48-1.53-2.85-3.22-6-4.89-9.12-4.39-5.84-6.07-14.11-9.42-20.11l0,.64-3.9-10.27c-1.5-2.92-2.32-7.34-3.67-10.33-.45-1.63-.92-3.24-1.4-4.85.16.28.28.58.46.85l-.06,0c.39.7.64,1.14,1,1.87-.16-.76-.26-1.28-.41-2v-.1a.56.56,0,0,1,0,.1,17.47,17.47,0,0,0-.22-2.82c.18-1.46-.45-4-1.11-6.53l-.14.05-.05,0,.19-.07a10.34,10.34,0,0,0-.16-2.16,206.28,206.28,0,0,0,7.17,22.31c2.48,6.9,6.11,13.64,8.45,21.2,1.6,5.71,4.49,12.51,5.33,8.49.3-.77,2.52,3.32,3.88,5.91,2.68,4.83,5.44,10.65,8.66,15.54a7.75,7.75,0,0,1,1.2,2,10.39,10.39,0,0,0,2.23,3.41,8,8,0,0,1,1.45,2.2c7,13.8,15.74,26.91,28.95,37.31a49.47,49.47,0,0,1,5.06,5.27c2.08,3.34,5.72,6.76,9.18,9.5a256.81,256.81,0,0,0,32.78,24.54l.07-.1.05-.1-.12.2c4.21,4.32,12,7.33,18,11.07,2.25,2.08,5.94,3.92,9.17,5.35a42.3,42.3,0,0,0,7.27,3.93c3.48,1.62,2.76.28,5,1a11.32,11.32,0,0,0,4.1.83c1.19.14,5.84,1.92,5.33.79-.1-.64-.74-1.38-2.75-2.61-.2-1.16-2.35-2.83-5.88-4.84l-.84-.2,0-.05a2.66,2.66,0,0,0,.82.25c-1.55-2.19-3.28-4.62-4.83-6.82.48-1.07-.1-2.53-5-5.28-.46-1-1.44-2.11-1.86-3.18,3.51,1.64,7.39,3.18,10.79,4.37,3.65,1.27,5.81,1.14,6.08.46.89-.77-3.22-2.26-5.66-3.52-2.94-1.45-5.18-3.09-5.35-4-.34-1.17,3.9.62,6,1.1,7.41,1.82,16.78,6.62,25.19,7.74,3.91.9,8.85,3.22,12.28,2.76l-.24-.18.26.06,0,.12c5.75,1.17,11.66,3,16.56,2.91a7.08,7.08,0,0,1-1.26-.54l.27.06,1,.48c5.24.82,11.58,2,15.92,1.36l-.53-.18.54.07v.11c8.44.37,17.17,2.7,26.52.9,7.37-1.11,20.08-1.71,28.84-3.64,9.17-2.23,20-2.38,27.84-6.51l-.54,0c.47-.2.48-.15.48-.15l.06.18a223.09,223.09,0,0,0,50.67-20.23,169.55,169.55,0,0,0,30.3-18.24l0,0c.37.42,1.37.2,3.28-1.21l.95-1.15,0,0-1,1.11a8.78,8.78,0,0,0,3.28-.69c-2.39,1.88-5,4.35-7.39,5.51l.21-.17c-2.59,1.44-6.16,4.22-8.66,5.25-5.74,1.93-11.64,7.46-17.92,10.35l-5.24,2.57c-3.54,1.16-7.93,4.27-11.77,5.36l-4.89,2c-6.4,3-12.67,6-19.41,7.4l-1,.41-.76.19c-19.89,4.85-34.4,10.12-49.75,13.7,29.19-3,57.51-11.81,83.62-24.49l5.74-2.9c4.8-1.19,10-4.54,14.89-7.88l8-5c2.66-1.33,5.85-3.78,8.42-5.29a18.3,18.3,0,0,1,2.41-1.71c2.57-1.09,5.42-3.62,8.32-6,.86-.66,1.95-1.48,2.6-2,1.13-.72,2.63-1.49,3.48-2.16,1.26-1.24,2.46-2.43,3.68-3.62a11.15,11.15,0,0,0,3.51-2.69l.29-.16-.05,0c.49.05,1.44-.73,3-2.24a6.6,6.6,0,0,1,1.63-1.8c8.1-9.46,15.1-20.15,21.59-30.7a102.84,102.84,0,0,0,6.59-11.6,32.56,32.56,0,0,0,4.51-7.73c.8-1.1,1.62-2.16,2.49-3.17,5-13.05,10.54-26.53,12.49-39.23,1.58-5.8,4.82-12.46,4.11-17.28,1.37-8.61,3.76-18,3.5-26.19Zm-46.92-184.11-.14.1s.08-.06,0-.34Zm-305.43-85.36c-.07-.16-.44-.27.35-.69.24-.22.82-.32,1.06-.51C7064.89,6969.77,7064.11,6970.21,7064.19,6970.4Zm30.33,474.38c-.06.17.11.49-.75.23-.31,0-.79-.34-1.1-.38C7093.57,7444.73,7094.44,7445,7094.52,7444.78Zm306.9-249.05h-.12v-.55Zm-1.54,33.11c.33-5.27.77-10.58-.06-15.32C7400.83,7217.74,7400.26,7223.29,7399.88,7228.84Zm.42-99.95c-.26-.23-.79-1.58-1.09-1.77-.14-.58-.34-1.42-.48-2C7399.29,7126.47,7400,7128.1,7400.3,7128.89Zm-2,30.44.12,0c-.07.3-.17,1.17-.39.66A3.78,3.78,0,0,0,7398.29,7159.33Zm-4.73,49.92h.06l-.06.28Zm-5.52-18.83c.05,1.06.4,1.57.25,2.36-.14,2.11-.52-.21-.85-1.27C7387.71,7191.49,7388,7191.48,7388,7190.42Zm-3.29,37.14.17,0-.11.52C7384.73,7228.35,7384.75,7227.56,7384.75,7227.56Zm-50.3,129.78c.39-.73.82-1.48,1.23-2.23.25-3.61,4.82-10,8.27-17.3-1.39,5.3-5,11.4-8.27,17.3a5.71,5.71,0,0,0-.17,1C7335.33,7356.32,7335,7356.72,7334.45,7357.34Zm-309.65-3.65c-.26-.15-.63-.57-.88-.67l0,0-.16-.18-.56-.55,0,0a3.39,3.39,0,0,1,.53.57l.2.14.46.29C7024.53,7353.47,7024.66,7353.56,7024.8,7353.69Zm-42.34-12.56-.31-.4c.45.29.64.15.51-.39l-.1-.15s.09.06.16.13c-2.24-4.3-4.16-10-2.26-9.47,2.26,3.24,4.68,8,7.47,11.21,1.27,1.85,2.68,3.94,4.11,6,2.2,5.36,2.62,6.4,1.51,8-1.35-2.35-3.33-4.7-5.39-7.58-.92-2.61-3.33-5.31-5.5-8.18C6982.79,7340.88,6982.64,7341,6982.46,7341.13Zm6.69-78.39.2-.05v.52Zm-3.18,14.44a1.65,1.65,0,0,0-.94-.51,7.15,7.15,0,0,1-1.22,3.32c.28-1.39.22-3.49,1.22-3.32a15.4,15.4,0,0,0,.29-2.95C6985.75,7275.16,6985.46,7275.77,6986,7277.18Zm-7.74,42.55s-.12-.26-.24-.48a22.63,22.63,0,0,0,2.51,3.67l-.18.09C6979.73,7322.07,6979.14,7321.14,6978.23,7319.73Zm-3.77-22.82c-.56-.93-.83-1.39-1-1.64-.17-.49-.36-1-.45-1.27C6973.4,7294.75,6974,7295.94,6974.46,7296.91Zm-7.54-31.28c-.2.05-.55-.43-.9-1.16l-.11-.54C6966.19,7264.71,6966.65,7265.7,6966.92,7265.63Zm-21.92-20a4.31,4.31,0,0,1-.35-1h.05A2.62,2.62,0,0,0,6945,7245.6Zm6.29,23.11c-.45.13-.19,1.62.33,3.61a11.52,11.52,0,0,1-1.26-3.87C6950.43,7267.65,6950.92,7268.27,6951.29,7268.71Zm11.54-13.47a15,15,0,0,1-1.6-4.9A37.16,37.16,0,0,0,6962.83,7255.24Zm1.76,12.89c-.16-1.64-.34-3,.24-3.09C6964.36,7265.14,6964.43,7266.49,6964.59,7268.13Zm-22.83-75.78,0,.49h-.12v-.24l0-.25Zm-1.46,9.81v.24c0,.09,0,.19-.05.26l-.43,3.56c0,.33,0,.65-.07,1v-.52c0-.17.05-.34.07-.5a19.58,19.58,0,0,1,.43-3.56C6940.27,7202.5,6940.28,7202.34,6940.3,7202.16Zm-4,38.39a.7.7,0,0,0,.62-.29c.07.8.12,1.31.19,2.08a10.19,10.19,0,0,0-.81-1.79c-.64-.08-1.33-1.16-2-2.27A6.6,6.6,0,0,1,6936.26,7240.55Zm31.32,65.69c.54,1.3.85,2.07,1.27,3.11a11.76,11.76,0,0,0,1.44,3.35l0-.58a30.48,30.48,0,0,0,1.35,3.4c1.81,3.79,5.15,9.38,2.92,8.61-.61-.26-.87-.06-.83.5-.68-1.34-1.34-2.66-2-3.87l0,0c0-1.82-2.53-5-3.71-7.86a31.48,31.48,0,0,0-2.21-7.1C6966.59,7306.74,6967.18,7306.76,6967.58,7306.24Zm61.52-270.7a.58.58,0,0,0,.08-.12h0Zm163.51-50.43,0,.33c0,.25-1.3.05-1.33.23C7191.27,6985.4,7192.57,6985.4,7192.61,6985.11Zm-16-2.18c-.51-.05,0,0-.25-.05h-1.29l.53-.07a25.27,25.27,0,0,1,4.4-.21C7179.21,6982.81,7177.16,6982.67,7176.61,6982.93Zm3.41,2.38v0a3.82,3.82,0,0,1-.78,0l-.24,0-.53.12c-.22,0-.37,0-.57,0a10.85,10.85,0,0,0,1.1-.15v-.06l.24,0Zm172.18,309.48a3.1,3.1,0,0,1,.72-1.29l.13.05C7352.81,7294,7352.13,7295.56,7352.2,7294.79Zm.55,1.69-.2.38.05-.46a3,3,0,0,0-.22.26s0-.11,0-.17.18-.1.3-.27c0,0-.06.11-.09.18Zm24.78-70.67c-.1.74-.14,1-.27,2a3,3,0,0,0-.21-1.3C7377.24,7225.78,7377.38,7226.06,7377.53,7225.81Zm-4.71-121.47c.05.11,0,.08.14.3l-.12-.26v0l-.34-.7c-.14-.55-.18-.81-.18-.81A6.39,6.39,0,0,0,7372.82,7104.34Zm-1.08-23.69.13.19a1.08,1.08,0,0,1-.08-.13l-.07-.1-.15-.24A3.21,3.21,0,0,1,7371.74,7080.65Zm-3.34-3-.11.06-.15-.24C7368.35,7077.69,7368.4,7077.65,7368.4,7077.65Zm-72.47-64a36.91,36.91,0,0,0-4.61-2.33A14.47,14.47,0,0,1,7295.93,7013.64Zm-14.49-6.84a3.49,3.49,0,0,1,1.11.23l.45.3A6.12,6.12,0,0,0,7281.44,7006.8Zm1.55-1c.25-.4-.75-1.29-2-2.34C7282.24,7004.5,7283.3,7005.29,7283,7005.79Zm-27.51-15.26,1.22.59c-.79-.27-2-.72-3.07-1.06ZM7231,6975.75l3.81.85.52.17a22.33,22.33,0,0,0-4.38-.83Zm-45.82-25.35c-.23.06-.38.13-.79.22v-.09Zm-41,1.36.57,0-2.33.1Zm-165.08,119.31c0,.22,0,.59,0,.91a0,0,0,0,0,0,0A1.59,1.59,0,0,1,6979.12,7071.07Zm-.33,1.41,0,.07c-.3.12-.63.31-.94.45C6978.19,7072.77,6978.49,7072.65,6978.79,7072.48Zm-45.43,148.38c-.12.34-.2.69-.46.4l0-.54C6933.12,7221.29,6933.24,7221.12,6933.36,7220.86Zm5.67,44.94,0,.07h0Zm25.24,49.35c-.65-1.62-1.29-3.2-1.93-4.78.27.37.53.76.8,1.13a21.29,21.29,0,0,0,1.78,4.61C6964.7,7315.8,6964.5,7315.46,6964.27,7315.15Zm16.44,31.52a73.91,73.91,0,0,1-9.88-19c-.25-.79-.58-1.59-.9-2.4a22.83,22.83,0,0,1,1.83,3.44c.54,1.82,2.4,4.37,3.77,6.57a12.13,12.13,0,0,0,1.16,1.1c5.14,6.94,9.69,14.23,16.29,20.48l-.46.56C6990.63,7358.82,6985.53,7352.55,6980.71,7346.67Zm14.36-46.57c1.31-.06,1.63-1.81,1.05-5h0c.39,1.95.78,3.88,1.12,5.59C6998.1,7304.15,6996.23,7301.48,6995.07,7300.1Zm2.85,43.31c.26.14-.34-1.08.41-.28s.16.56.51,1.29Zm16.2.15.25-.19c.22-.15,1,.88,1.11.78C7015.27,7344.3,7014.35,7343.4,7014.12,7343.56Zm7.13,10.7c.71.41,2.06,2,2.63,2.16.33.4,0,0,.14.22s.91.92.91.92l-.42-.34A23.63,23.63,0,0,1,7021.25,7354.26Zm3.52,47.12-.38-.42,1.72,1.56Zm9.63-4.13c0-.07-.08-.2-.06-.27-1.64-1.81-2.59-3.35-4.17-5.12l-.49-.31s.28.13.06-.06l.43.37c3.86,3.08,4.38,4.28,4.17,5.12a12.78,12.78,0,0,0,.88,1Zm17.28-29,1.93.74c-.36.05.09.62.17.91A19.53,19.53,0,0,1,7051.68,7368.27Zm12.55,28.25.07-.1.16.23C7064.24,7396.5,7064.23,7396.52,7064.23,7396.52Zm25.76,2a9.42,9.42,0,0,0,2.19.59A4.92,4.92,0,0,1,7090,7398.52Zm12.58,6.66c.24.1.25.08.25.08v0l-.24-.1a3.41,3.41,0,0,0-.43-.06c-1,.49-3,0-5.3-.8a12.94,12.94,0,0,1-3.23-1.31c-.15-.08-.22,0-.36-.12l-1.57-.73,1.93.85c1.09.48,2.19.93,3.23,1.31,1.84.47,3.35.4,5.3.8,0,0,.18,0,.18,0,.16,0,0-.12,0-.12-.65-.84-1.2-1.44-1.95-2.28l-.31-.21.2.09a7.12,7.12,0,0,0-.55-.55,54,54,0,0,1-6.51-4.86l-.05.1-5.36-3.33,4.76,2.88.65.35a21.57,21.57,0,0,1,6.51,4.86c.38.25.62.51,1,.75l-.46-.2a.5.5,0,0,1,.08.08c1.7,1.09,3.28,2.11,2.05,2.3A1.71,1.71,0,0,1,7102.57,7405.18Zm6.24,1.06-2.69-1.16c.92.33,2,.92,3.2,1.25Zm13.85,18,0-.09v0Zm13.22-6.26c.29-.13-.65-.43-.6-.6a4.56,4.56,0,0,0,1.31.82Zm18.26,4.26,0-.09.47.19Zm12,1.71a34.57,34.57,0,0,0-4-1.78l4.68.26C7167.74,7423,7168.42,7423.53,7166.13,7424Zm19-15.1a6.2,6.2,0,0,0,1.83.51,1.48,1.48,0,0,0,.67.24v.07a2.12,2.12,0,0,1-.67-.31l-2.28-.46C7185.17,7408.93,7185.17,7408.87,7185.17,7408.87Zm2.43,3.67h.25a7.2,7.2,0,0,1-1.67.49A8.63,8.63,0,0,0,7187.6,7412.54Zm39.16,20.35-.13.12a1.72,1.72,0,0,1-.79.73l.79-.73a.63.63,0,0,0,.08-.41c.06.32.86.48,1.43.7A12.4,12.4,0,0,0,7226.76,7432.89Zm20.52-24c-.95.3-2.18.83-2.3.33-.45.14,0-.16-.74,0a.27.27,0,0,0,.09-.1c.19-.08.37-.13.55-.21l.1.34,1.43-.15q.42-.1.87-.18l.49-.16,0,.06Zm47.43-21.75c-3.19,1.52-6,2.68-7.13,2.09-1.57-.47,1.67-2.3,4.37-4.07,1.17-.77,2.65-1.86,1.77-2-1.89.39-4.48,2.36-5.89,2.2,2.38-1.85,5.48-2.89,8-4.91-.61.15-1,.21-1.17.1l-.21.05.11-.09.1,0c.54-.18,1-.31,1.17-.1a4.52,4.52,0,0,1,1.55-.95c3.29-1.25,6.69-4.41,10.15-5.89,4.77-2.37,8.49-5.91,12.43-9.75l.2-.13.34-.32-.17.14c2.88-4-.94-.73-3.32,1l-1.05.86-.61.35c-1.94.49-5.26,3.6-7.2,4,8.12-6.49,16.51-13.06,23.63-20.67.48-.49,1-1,1.58-1.53a.79.79,0,0,0-.15.29c-.49.95.36.3,1-.53a10.52,10.52,0,0,0,.91-1.25l-.14-.09c1.34-1.36,2.44-2.65,2.47-3.66a10.85,10.85,0,0,1,1.84-4.18c1.89-.92,4.69-3.68,5.92-3.41-1.09,1.79-1.56,2.77-1.47,3.46-4,5.52-5.09,8.3-7.32,12.31-2.16,3.74-2.83,6.34-6.45,11-1.95,2.2-3.73,4.37-5.44,6.51-.48.34-.95.69-1.43,1A269.12,269.12,0,0,1,7294.71,7387.18Zm10.49-1.93,1-.61a5.06,5.06,0,0,0,1-.44,4.31,4.31,0,0,1,1.21-.58,5.14,5.14,0,0,0-1.21.58A14.74,14.74,0,0,1,7305.2,7385.25Z" transform="translate(-6925.7 -6948.31)"/><path class="cls-1" d="M6992.83,7042.57c-.88,2.52-7,9.25-8.07,12.53C6994.49,7043.81,6994.9,7044.21,6992.83,7042.57Z" transform="translate(-6925.7 -6948.31)"/><path class="cls-1" d="M6931.37,7172.29c.82-2.84,1.37-7.34,2.42-9.83,2.69-5.43,2.95-13.5,5.35-20,.51-1.49,1.21-3.52,1.89-5.52,1.68-3.32,2.58-8.63,4.53-12.11.82-1.93,1.43-3.41,2-4.87,2.38-6.67,4.74-13.19,8.49-18.95l.4-1,.4-.67c6.21-10.23,11-19.23,15.61-27.64l3.92-5.85c1.23-2.06,2.2-3.95,1.83-4.19,0-.07,0-.08,0-.08,1.34-2.41,2.72-4.78,4.18-7.12a248.77,248.77,0,0,0-38.6,67.71c-.18-.83-1,.76-1.67,2.71-1.52,4.76-3.42,9.6-4.59,14.27-1.86,4-3,9.05-3.93,14-.71,3.14-1.37,6-2.08,9.17-1,2.83-1.47,6.8-2.22,9.69a18.69,18.69,0,0,1-.49,2.92c-1.05,2.59-1.27,6.38-1.65,10.13-.13,1.07-.32,2.41-.44,3.23-.28,1.31-.79,2.92-.91,4-.05,4.07-.08,7.85-.11,11.91a3.56,3.56,0,0,0,.18.81c.16.28.29.28.46-.53a11.92,11.92,0,0,0,.79-3.25h-.06c.54-1.86.45-4.81.83-7.21a17.34,17.34,0,0,1,.14-2.41,22.35,22.35,0,0,0,1.29-6.89,24.42,24.42,0,0,1-.73,2.39c-.1.33-.2.65-.31,1l0-.28c.1-.22.19-.49.29-.75l.73-2.39c1.17-3.11.85-9.06,2.07-12.67Z" transform="translate(-6925.7 -6948.31)"/><path class="cls-1" d="M7363.94,7039.38c-5.22-7.85-10.8-11.88-15.31-15.5C7353.65,7027.9,7359,7036,7363.94,7039.38Z" transform="translate(-6925.7 -6948.31)"/><path class="cls-1" d="M7390.69,7077.59c1.58,3,3.43,6.45,5.13,9.67a42.78,42.78,0,0,0,2.51,4.17c1.48,1.64.9-.42-.19-2.6-3.36-6.49-6.22-13.69-10.56-18.56-.5-.75-1-1.5-1.67-2.52-1.4-2-2.88-4-3.37-3.66-.72-.25.58,1.78,1.57,3.34C7386.39,7071,7388.57,7075,7390.69,7077.59Z" transform="translate(-6925.7 -6948.31)"/><path class="cls-1" d="M7012.61,7023.13a4.91,4.91,0,0,0-2.28,1.51l-2.51,2.85,2.46-1.67C7011.74,7024.65,7012.9,7023.5,7012.61,7023.13Z" transform="translate(-6925.7 -6948.31)"/><path class="cls-1" d="M7002.16,7033.66c.21-.52.33-.81.57-1.37l-2.36,1.84c.17.18-.64,1.28-.13,1A19.35,19.35,0,0,0,7002.16,7033.66Z" transform="translate(-6925.7 -6948.31)"/><path class="cls-1" d="M7397.68,7321.22c-.55.73-.69-.69-1.68,2.22-.19.6-.21,1.25-.08,1.32a20.39,20.39,0,0,0,1.82-2.51C7398.25,7321.16,7398.42,7320.23,7397.68,7321.22Z" transform="translate(-6925.7 -6948.31)"/><path class="cls-1" d="M7417.29,7159.08c.75.51,0-2.73-.26-4.53l-2.16-10.66c-.9-1.94-1.41-1.81-1.35.32l2.09,10.62C7416.22,7157.15,7416.85,7159.16,7417.29,7159.08Z" transform="translate(-6925.7 -6948.31)"/><polygon class="cls-1" points="377.99 55.41 379.04 56.41 378.53 55.62 377.99 55.41"/><path class="cls-2" d="M7298.17,7092.88Z" transform="translate(-6925.7 -6948.31)"/><path class="cls-2" d="M7287.53,7120.48a36.34,36.34,0,0,1-10.5,1.37l.19-1.12c5.47-4.38,19.27-17.82,21.09-24.11.79-2.71-.14-3.65-.15-3.74l-17.63,7.48-14.75,6.66h0c-10.18-10.78-25.6-17.64-42.83-17.64-30.67,0-55.54,21.71-55.54,48.52,0,4.92.73,13.85,2.27,18.32,0,1.4,0-1.41,0,0-19.75-.54-45.07-8.65-67.61-20.07-44.47-22.52-47.25-38.12-47.25-38.12-7,7.41-10.59,32-3.51,51.22,4.53,12.32,20.11,23.39,20.11,23.39h0a47.27,47.27,0,0,1-14.26-2.33c-7.3-2.47-10.06-4.92-10.06-4.92-4.34,10.58,4.37,29.48,19.42,43,8.76,7.9,24.79,12.86,24.79,12.86l-25,.7c-1.41,24.33,51,38.78,51,38.78h0c-15.36,11.81-33.19,19-52.3,19a99.74,99.74,0,0,1-28.55-4.2c25.24,20.8,57.69,35.16,93,33.31,93.6-4.92,146.43-85.38,149-164.39l.12.16s4.38-2.19,13.76-11.56a97.25,97.25,0,0,0,15.21-20.35S7293.42,7118.85,7287.53,7120.48Z" transform="translate(-6925.7 -6948.31)"/><path class="cls-2" d="M7298.17,7092.88c.06,1.5,0,.15,0,0Z" transform="translate(-6925.7 -6948.31)"/></svg>